<?xml version="1.0" ?><!DOCTYPE svg  PUBLIC '-//W3C//DTD SVG 1.1//EN'  'http://www.w3.org/Graphics/SVG/1.1/DTD/svg11.dtd'><svg width="846.66px" height="846.66px" viewBox="0 0 846.66 846.66" style="shape-rendering:geometricPrecision; text-rendering:geometricPrecision; image-rendering:optimizeQuality; fill-rule:evenodd; clip-rule:evenodd" version="1.1" xml:space="preserve" xmlns="http://www.w3.org/2000/svg" xmlns:xlink="http://www.w3.org/1999/xlink"><defs><style type="text/css">
   <![CDATA[
    .fil0 {fill:black;fill-rule:nonzero}
   ]]>
  </style></defs><g id="Layer_x0020_1"><path class="fil0" d="M217.88 8.44l410.9 0c82.39,0 149.71,67.33 149.71,149.71l0 530.36c0,82.38 -67.32,149.71 -149.71,149.71l-410.9 0c-82.38,0 -149.71,-67.32 -149.71,-149.71l0 -530.36c0,-82.38 67.33,-149.71 149.71,-149.71zm-18.43 162.55l447.76 0c11.44,0 20.73,9.28 20.73,20.72l0 441.54c0,11.45 -9.29,20.73 -20.73,20.73l-447.76 0c-11.44,0 -20.72,-9.28 -20.72,-20.73l0 -441.54c0,-11.44 9.28,-20.72 20.72,-20.72zm427.03 41.45l-406.3 0 0 400.08 406.3 0 0 -400.08zm-209.42 -81.5c-27.26,0 -27.26,-41.46 0,-41.46l108.69 0c27.27,0 27.27,41.46 0,41.46l-108.69 0zm-55.84 635.83c-27.26,0 -27.26,-41.45 0,-41.45l124.22 0c27.26,0 27.26,41.45 0,41.45l-124.22 0zm267.56 -716.87l-410.9 0c-59.49,0 -108.25,48.76 -108.25,108.25l0 530.36c0,59.5 48.76,108.25 108.25,108.25l410.9 0c59.5,0 108.25,-48.75 108.25,-108.25l0 -530.36c0,-59.49 -48.75,-108.25 -108.25,-108.25z"/></g></svg>